<?xml version="1.0" encoding="utf-8"?>
<!-- Generator: Adobe Illustrator 27.1.1, SVG Export Plug-In . SVG Version: 6.00 Build 0)  -->
<svg version="1.1" id="Слой_1" xmlns="http://www.w3.org/2000/svg" xmlns:xlink="http://www.w3.org/1999/xlink" x="0px" y="0px"
	 viewBox="0 0 147 50" style="enable-background:new 0 0 147 50;" xml:space="preserve">
<style type="text/css">
	.st0{clip-path:url(#SVGID_00000026872921761500231070000015688387145494820767_);}
	.st1{fill:#89E55A;}
	.st2{fill:#FF0000;}
	.st3{fill:#D80000;}
	.st4{fill:#52CC19;}
	.st5{fill:#0DA800;}
</style>
<g>
	<defs>
		<rect id="SVGID_1_" y="0" width="147" height="50"/>
	</defs>
	<clipPath id="SVGID_00000036942555295015294840000017812613327374846127_">
		<use xlink:href="#SVGID_1_"  style="overflow:visible;"/>
	</clipPath>
	<g style="clip-path:url(#SVGID_00000036942555295015294840000017812613327374846127_);">
		<path class="st1" d="M27.4,38.3H16.2l3.5-16.5h3l-2.8,13.5h5l1.4-6.8l9.2,0l0.2-1.1l4.2,2.7l-5.4,2.5l0.3-1.1l-6,0L27.4,38.3z"/>
		<path class="st2" d="M38.2,24.8h-9.8c0.2-1,0.4-2,0.7-3.1h6.6l0.8-3.9h-23c0,0.4,0,0.7-0.1,1.1l-4.9-2.7l5-2.6v1.1h26.7L38.2,24.8
			z"/>
		<path d="M24.9,3.4c4.3,0,8.5,1.3,12,3.7c3.5,2.3,6.2,5.6,7.8,9.5c1.4,3.3,1.9,6.9,1.6,10.5c-0.3,3.6-1.6,7-3.6,10
			c-1.5,2.3-3.5,4.3-5.8,5.8c-2.8,1.9-6,3.1-9.3,3.5c-3.3,0.4-6.7,0.1-9.9-1.1c-3.2-1.1-6-3-8.4-5.4c-2.3-2.4-4-5.4-5-8.6
			s-1.2-6.6-0.6-10c0.6-3.3,1.9-6.5,3.9-9.2c2-2.7,4.6-4.9,7.6-6.4C18.2,4.2,21.5,3.4,24.9,3.4 M24.9,0C11.1,0,0,11.2,0,25
			s11.1,25,24.9,25c13.7,0,24.9-11.2,24.9-25S38.6,0,24.9,0L24.9,0z"/>
		<path class="st3" d="M13.4,17.9c0,0.4,0,0.7-0.1,1.1l-4.9-2.7l5-2.6c0,0.4,0,0.7,0,1.1h26.7L13.4,17.9z"/>
		<path class="st4" d="M27.4,38.3H16.2l8.7-3.1l1.4-6.8l9.2,0l0.2-1.1l4.2,2.7l-5.4,2.5l0.3-1.1l-6,0L27.4,38.3z"/>
		<path class="st5" d="M28.8,31.5l6.7-3.1l0.2-1.1l4.2,2.7l-5.4,2.5l0.3-1.1L28.8,31.5z"/>
		<path d="M60.1,20.9h12.6L72,24.2h-9.3l-1.5,6.7h-3.3l1.5-6.7l0.6-2.7L60.1,20.9z M60.7,18.5l0.8-3.3h14l-0.8,3.3H60.7z"/>
		<path d="M81.1,15.1l-3.6,15.8h-3.3l3.6-15.8L81.1,15.1z"/>
		<path d="M85.8,24.8l1.4,2.8l-3,3.1L84,30.9h-4.1l1-1L85.8,24.8z M96,30.9h-4.1l-0.1-0.3l-1.5-2.9l-1.1-2.2l-1.4-2.8l0,0l-3.3-6.6
			l-0.5-1H88l0.1,0.3l2.3,4.5l4.4-4.5l0.2-0.3h4.1l-1,1l-6.4,6.6l3.6,7.1L96,30.9z"/>
		<path d="M113.7,23.1c-1,4.3-5.3,7.9-9.6,7.9c-4.3,0-7-3.5-6-7.9c1-4.3,5.3-7.9,9.6-7.9C112,15.2,114.7,18.8,113.7,23.1z
			 M106.9,18.5c-2.5,0-5,2.1-5.6,4.6c-0.6,2.5,1,4.6,3.5,4.6s5-2.1,5.6-4.6C111,20.6,109.4,18.5,106.9,18.5z"/>
		<path d="M116.3,22.3l2.6,3.3l-1.2,5.3h-3.3L116.3,22.3z M130.6,15.1L127,30.9h-0.8l-1.8-2.4l-3-4l-1.8-2.3L117,19l0.5-2l0.3-1.5
			l0.1-0.4h0.8l6.6,8.6l2-8.5H130.6z"/>
		<path d="M133.5,27.6h10.7l-0.8,3.3h-14l0.6-2.7l0.1-0.6l1.6-6.8l3.3,0h9.3l-0.8,3.3h-9.3L133.5,27.6z M147,15.2l-0.8,3.3h-14
			l0.6-2.7l0.1-0.6L147,15.2z"/>
		<path class="st5" d="M58,37.9c-0.3,0-0.6,0-0.8-0.2c-0.2-0.1-0.4-0.2-0.6-0.4c-0.2-0.2-0.3-0.4-0.3-0.7c0-0.3,0-0.6,0-0.8
			c0.1-0.3,0.2-0.6,0.4-0.8c0.2-0.3,0.4-0.5,0.6-0.7c0.5-0.4,1.1-0.6,1.7-0.6c0.3,0,0.6,0.1,0.9,0.2c0.2,0.1,0.5,0.3,0.6,0.5
			L59.7,35c-0.1-0.1-0.2-0.3-0.4-0.3c-0.2-0.1-0.4-0.1-0.5-0.1c-0.2,0-0.4,0-0.5,0.1c-0.2,0.1-0.3,0.2-0.5,0.3
			c-0.3,0.2-0.5,0.6-0.6,0.9c0,0.2,0,0.3,0,0.5c0,0.1,0.1,0.3,0.2,0.4c0.1,0.1,0.2,0.2,0.3,0.3c0.2,0.1,0.3,0.1,0.5,0.1
			c0.2,0,0.4,0,0.6-0.1c0.2-0.1,0.4-0.2,0.6-0.3l0.4,0.7c-0.3,0.2-0.5,0.3-0.8,0.4C58.6,37.8,58.3,37.9,58,37.9z M58.9,37.2l0.3-1.5
			h0.8l-0.4,1.6L58.9,37.2z"/>
		<path class="st5" d="M63.1,37.8l0.9-4h0.9L64.2,37h2L66,37.8L63.1,37.8z"/>
		<path class="st5" d="M71,37.9c-0.3,0-0.6,0-0.8-0.2c-0.2-0.1-0.4-0.2-0.6-0.4c-0.2-0.2-0.3-0.4-0.3-0.7c0-0.3,0-0.6,0-0.8
			c0.1-0.3,0.2-0.6,0.4-0.8c0.2-0.2,0.4-0.5,0.6-0.7c0.2-0.2,0.5-0.3,0.8-0.4c0.3-0.1,0.6-0.2,0.9-0.2c0.3,0,0.6,0,0.8,0.2
			c0.2,0.1,0.4,0.2,0.6,0.4c0.2,0.2,0.3,0.4,0.3,0.7c0,0.3,0,0.6,0,0.8c-0.1,0.3-0.2,0.6-0.4,0.8c-0.2,0.3-0.4,0.5-0.6,0.7
			c-0.2,0.2-0.5,0.3-0.8,0.4C71.6,37.8,71.3,37.9,71,37.9z M71.1,37.1c0.2,0,0.3,0,0.5-0.1c0.2-0.1,0.3-0.2,0.5-0.3
			c0.1-0.1,0.3-0.3,0.4-0.4c0.1-0.2,0.2-0.3,0.2-0.5c0-0.2,0.1-0.3,0-0.5c0-0.1-0.1-0.3-0.2-0.4c-0.1-0.1-0.2-0.2-0.3-0.3
			c-0.1-0.1-0.3-0.1-0.5-0.1c-0.2,0-0.4,0-0.5,0.1c-0.2,0.1-0.3,0.2-0.5,0.3c-0.1,0.1-0.3,0.3-0.4,0.4c-0.1,0.2-0.2,0.3-0.2,0.5
			c0,0.2-0.1,0.3,0,0.5c0,0.1,0.1,0.3,0.2,0.4c0.1,0.1,0.2,0.2,0.3,0.3C70.8,37,71,37.1,71.1,37.1L71.1,37.1z"/>
		<path class="st5" d="M76.5,37.8l0.9-4h1.9c0.5,0,0.9,0.1,1.1,0.3c0.2,0.2,0.3,0.4,0.2,0.8c0,0.2-0.1,0.4-0.3,0.5
			c-0.1,0.2-0.3,0.3-0.5,0.4c-0.2,0.1-0.4,0.1-0.6,0.1l0.2-0.2c0.2,0,0.4,0,0.6,0.1c0.2,0.1,0.3,0.2,0.4,0.4c0.1,0.2,0.1,0.4,0,0.6
			c0,0.2-0.1,0.3-0.2,0.5c-0.1,0.1-0.2,0.3-0.4,0.3c-0.3,0.2-0.7,0.3-1.3,0.3H76.5z M77.6,37.1h1.1c0.2,0,0.4,0,0.6-0.1
			c0.1,0,0.1-0.1,0.2-0.2c0-0.1,0.1-0.1,0.1-0.2c0-0.2,0-0.3-0.1-0.4c-0.1-0.1-0.3-0.1-0.5-0.1h-1.2l0.2-0.7h1c0.2,0,0.4,0,0.5-0.1
			c0.1,0,0.1-0.1,0.2-0.1c0-0.1,0.1-0.1,0.1-0.2c0-0.2,0-0.3-0.1-0.4c-0.1-0.1-0.3-0.1-0.5-0.1h-0.9L77.6,37.1z"/>
		<path class="st5" d="M82.9,37.8l2.7-4h0.9l0.9,4h-1l-0.7-3.5h0.4l-2.3,3.5H82.9z M84,36.9l0.4-0.7h2.1l0.1,0.7H84z"/>
		<path class="st5" d="M90.4,37.8l0.9-4h0.9L91.5,37h2l-0.2,0.8H90.4z"/>
		<path class="st5" d="M101.5,37.8l0.7-3.2H101l0.2-0.8h3.5l-0.2,0.8h-1.3l-0.7,3.2H101.5z"/>
		<path class="st5" d="M106.8,37.8l0.9-4h1.7c0.3,0,0.6,0,0.9,0.2c0.2,0.1,0.4,0.3,0.5,0.5c0.1,0.2,0.1,0.5,0,0.8
			c-0.1,0.3-0.2,0.6-0.4,0.8c-0.2,0.2-0.4,0.4-0.7,0.5c-0.3,0.1-0.6,0.2-1,0.2h-1.2l0.5-0.4l-0.3,1.5H106.8z M108.1,36.4l-0.3-0.4
			h1.2c0.2,0,0.5-0.1,0.7-0.2c0.2-0.1,0.3-0.3,0.3-0.5c0.1-0.2,0-0.4-0.1-0.5c-0.1-0.1-0.3-0.2-0.6-0.2h-1.2l0.5-0.4L108.1,36.4z
			 M109.4,37.8l-0.7-1.5h1l0.7,1.5L109.4,37.8z"/>
		<path class="st5" d="M113.1,37.8l2.7-4h0.9l0.9,4h-1l-0.7-3.5h0.4l-2.3,3.5H113.1z M114.2,36.9l0.4-0.7h2.1l0.1,0.7H114.2z"/>
		<path class="st5" d="M120.6,37.8l0.9-4h1.8c0.4,0,0.8,0.1,1.1,0.2c0.3,0.2,0.5,0.4,0.6,0.7c0.1,0.3,0.1,0.7,0,1.1
			c-0.1,0.4-0.3,0.8-0.5,1.1c-0.3,0.3-0.6,0.5-0.9,0.7c-0.4,0.2-0.8,0.3-1.2,0.2H120.6z M121.7,37h0.8c0.3,0,0.5,0,0.7-0.2
			c0.2-0.1,0.4-0.2,0.6-0.4c0.2-0.2,0.3-0.4,0.3-0.7c0.1-0.2,0.1-0.4,0-0.7c-0.1-0.2-0.2-0.3-0.4-0.4c-0.2-0.1-0.4-0.2-0.7-0.2h-0.8
			L121.7,37z"/>
		<path class="st5" d="M127.9,37.8l0.9-4h0.9l-0.9,4H127.9z"/>
		<path class="st5" d="M132.4,37.8l0.9-4h0.8l1.7,2.9h-0.4l0.7-2.9h0.9l-0.9,4h-0.8l-1.7-2.9h0.4l-0.7,2.9H132.4z"/>
		<path class="st5" d="M141.5,37.9c-0.3,0-0.6,0-0.8-0.2c-0.2-0.1-0.4-0.2-0.6-0.4c-0.2-0.2-0.3-0.4-0.3-0.7c-0.1-0.3,0-0.6,0-0.8
			c0.1-0.3,0.2-0.6,0.4-0.8c0.2-0.3,0.4-0.5,0.6-0.7c0.5-0.4,1.1-0.6,1.7-0.6c0.3,0,0.6,0.1,0.9,0.2c0.2,0.1,0.5,0.3,0.6,0.5
			l-0.7,0.5c-0.1-0.1-0.2-0.3-0.4-0.3c-0.2-0.1-0.4-0.1-0.5-0.1c-0.2,0-0.4,0-0.5,0.1c-0.3,0.1-0.6,0.4-0.8,0.7
			c-0.1,0.2-0.2,0.3-0.2,0.5c0,0.2-0.1,0.3,0,0.5c0,0.1,0.1,0.3,0.2,0.4c0.1,0.1,0.2,0.2,0.3,0.3c0.2,0.1,0.3,0.1,0.5,0.1
			c0.2,0,0.4,0,0.6-0.1c0.2-0.1,0.4-0.2,0.6-0.3l0.4,0.7c-0.3,0.2-0.5,0.3-0.8,0.4C142.1,37.8,141.8,37.9,141.5,37.9z M142.5,37.2
			l0.3-1.5h0.8l-0.4,1.6L142.5,37.2z"/>
	</g>
</g>
</svg>
